<svg width="421" height="85" viewBox="0 0 421 85" fill="none" xmlns="http://www.w3.org/2000/svg">
<path d="M89.65 64H97.648V32.814H97.772L114.016 64H117.24L133.484 32.814H133.608V64H141.606V20.6H131.934L115.69 52.53H115.566L99.322 20.6H89.65V64ZM153.589 77.95H162.145L185.085 31.14H176.467L165.865 53.708H165.741L155.077 31.14H146.521L161.649 61.83L153.589 77.95ZM188.736 64H196.424V47.446C196.424 41.06 199.462 37.712 204.36 37.712C205.848 37.712 207.398 37.96 209.01 38.394L210.684 31.388C208.824 30.83 207.088 30.52 205.414 30.52C201.632 30.52 198.47 31.884 196.176 34.302H196.052V31.14H188.736V64ZM211.662 55.196C211.662 61.086 216.498 64.93 223.876 64.93C228.898 64.93 233.3 63.132 235.346 60.218H235.47V64H242.476V42.3C242.476 34.86 236.71 30.21 227.596 30.21C219.288 30.21 212.654 34.798 211.414 41.618L218.73 43.168C219.66 39.138 223.07 36.596 227.782 36.596C231.812 36.596 234.416 38.146 234.416 40.688C234.416 42.672 232.494 43.602 226.108 44.532C215.692 46.082 211.662 49.182 211.662 55.196ZM235.098 52.034C235.098 55.506 230.634 58.42 225.054 58.42C220.9 58.42 218.978 57.304 218.978 54.762C218.978 52.344 221.272 51.104 227.286 50.05C232.184 49.12 234.168 48.438 234.974 47.012H235.098V52.034Z" fill="white"/>
<path d="M58.0762 25L35 71.8209L11.9238 25L58.0762 25Z" stroke="white" stroke-width="9"/>
<path d="M274.17 47.694C274.17 58.11 281.176 64.93 292.274 64.93C299.032 64.93 304.302 62.45 308.084 57.552L302.938 52.964C299.9 56.746 296.614 58.544 292.212 58.544C286.198 58.544 282.044 55.196 281.796 50.05H309.386V47.756C309.386 37.774 302.38 30.21 291.84 30.21C281.61 30.21 274.17 37.464 274.17 47.694ZM281.92 44.47C282.416 39.82 286.446 36.596 291.964 36.596C297.358 36.596 301.388 39.82 301.822 44.47H281.92ZM312.867 55.196C312.867 61.086 317.703 64.93 325.081 64.93C330.103 64.93 334.505 63.132 336.551 60.218H336.675V64H343.681V42.3C343.681 34.86 337.915 30.21 328.801 30.21C320.493 30.21 313.859 34.798 312.619 41.618L319.935 43.168C320.865 39.138 324.275 36.596 328.987 36.596C333.017 36.596 335.621 38.146 335.621 40.688C335.621 42.672 333.699 43.602 327.313 44.532C316.897 46.082 312.867 49.182 312.867 55.196ZM336.303 52.034C336.303 55.506 331.839 58.42 326.259 58.42C322.105 58.42 320.183 57.304 320.183 54.762C320.183 52.344 322.477 51.104 328.491 50.05C333.389 49.12 335.373 48.438 336.179 47.012H336.303V52.034ZM348.386 53.088C349.068 56.746 351.052 59.598 354.338 61.706C357.624 63.876 361.654 64.93 366.49 64.93C375.976 64.93 382.362 60.962 382.362 54.948C382.362 48.996 377.96 46.082 366.8 44.346C359.174 43.106 357.252 42.238 357.252 40.13C357.252 37.898 360.042 36.534 364.506 36.534C369.404 36.534 373.124 38.828 374.364 42.362L381.37 40.44C379.882 34.612 372.628 30.21 364.506 30.21C355.764 30.21 349.874 34.178 349.874 40.192C349.874 45.896 354.028 48.624 365.932 50.484C372.566 51.414 374.922 52.53 374.922 54.948C374.922 57.242 371.76 58.606 366.49 58.606C360.476 58.606 356.818 56.188 355.578 51.414L348.386 53.088ZM388.724 77.95H397.28L420.22 31.14H411.602L401 53.708H400.876L390.212 31.14H381.656L396.784 61.83L388.724 77.95Z" fill="#FDB933"/>
<path d="M275.273 75.9486C275.273 77.259 276.154 78.117 277.551 78.117C278.401 78.117 279.064 77.805 279.54 77.1888L278.892 76.6116C278.51 77.0874 278.097 77.3136 277.543 77.3136C276.786 77.3136 276.264 76.8924 276.232 76.245H279.703V75.9564C279.703 74.7006 278.822 73.749 277.496 73.749C276.209 73.749 275.273 74.6616 275.273 75.9486ZM276.248 75.543C276.31 74.958 276.817 74.5524 277.512 74.5524C278.19 74.5524 278.697 74.958 278.752 75.543H276.248ZM279.578 78H280.787L281.98 76.5102H281.996L283.205 78H284.406L282.627 75.9018L284.359 73.866H283.15L281.996 75.3012H281.98L280.841 73.866H279.632L281.364 75.9018L279.578 78ZM287.806 74.6928V73.866H286.473V72.8676H285.505V73.866H284.554V74.6928H285.505V76.8066C285.505 77.6412 285.888 78 286.831 78H287.627V77.1108H286.909C286.566 77.1108 286.473 77.0328 286.473 76.7598V74.6928H287.806ZM288.424 78H289.391V75.9174C289.391 75.114 289.773 74.6928 290.39 74.6928C290.577 74.6928 290.772 74.724 290.975 74.7786L291.185 73.8972C290.951 73.827 290.733 73.788 290.522 73.788C290.046 73.788 289.649 73.9596 289.36 74.2638H289.344V73.866H288.424V78ZM291.308 76.8924C291.308 77.6334 291.916 78.117 292.845 78.117C293.476 78.117 294.03 77.8908 294.288 77.5242H294.303V78H295.185V75.27C295.185 74.334 294.459 73.749 293.313 73.749C292.267 73.749 291.433 74.3262 291.277 75.1842L292.197 75.3792C292.314 74.8722 292.743 74.5524 293.336 74.5524C293.843 74.5524 294.171 74.7474 294.171 75.0672C294.171 75.3168 293.929 75.4338 293.125 75.5508C291.815 75.7458 291.308 76.1358 291.308 76.8924ZM294.256 76.4946C294.256 76.9314 293.695 77.298 292.993 77.298C292.47 77.298 292.228 77.1576 292.228 76.8378C292.228 76.5336 292.517 76.3776 293.274 76.245C293.89 76.128 294.139 76.0422 294.241 75.8628H294.256V76.4946ZM298.836 74.6928V73.866H297.502V72.8676H296.535V73.866H295.583V74.6928H296.535V76.8066C296.535 77.6412 296.917 78 297.861 78H298.657V77.1108H297.939C297.596 77.1108 297.502 77.0328 297.502 76.7598V74.6928H298.836ZM299.107 75.933C299.084 77.1576 300.106 78.1404 301.408 78.117C302.742 78.117 303.709 77.1732 303.709 75.933C303.733 74.724 302.711 73.7256 301.408 73.749C300.106 73.7256 299.084 74.724 299.107 75.933ZM302.742 75.933C302.742 76.323 302.617 76.6428 302.375 76.8924C302.126 77.142 301.806 77.2668 301.408 77.2668C301.01 77.2668 300.691 77.142 300.449 76.8924C300.199 76.6428 300.074 76.323 300.074 75.933C300.074 75.543 300.199 75.2232 300.449 74.9736C300.691 74.724 301.01 74.5992 301.408 74.5992C301.806 74.5992 302.126 74.724 302.375 74.9736C302.617 75.2232 302.742 75.543 302.742 75.933ZM304.412 78H305.38V75.9174C305.38 75.114 305.762 74.6928 306.378 74.6928C306.565 74.6928 306.76 74.724 306.963 74.7786L307.174 73.8972C306.94 73.827 306.721 73.788 306.511 73.788C306.035 73.788 305.637 73.9596 305.348 74.2638H305.333V73.866H304.412V78ZM310.135 77.3916L313.17 75.5664V74.958L310.135 73.1328L309.699 73.8426L312.117 75.2622L309.699 76.6896L310.135 77.3916ZM315.683 76.8924C315.683 77.6334 316.291 78.117 317.22 78.117C317.851 78.117 318.405 77.8908 318.663 77.5242H318.678V78H319.56V75.27C319.56 74.334 318.834 73.749 317.688 73.749C316.642 73.749 315.808 74.3262 315.652 75.1842L316.572 75.3792C316.689 74.8722 317.118 74.5524 317.711 74.5524C318.218 74.5524 318.546 74.7474 318.546 75.0672C318.546 75.3168 318.304 75.4338 317.5 75.5508C316.19 75.7458 315.683 76.1358 315.683 76.8924ZM318.631 76.4946C318.631 76.9314 318.07 77.298 317.368 77.298C316.845 77.298 316.603 77.1576 316.603 76.8378C316.603 76.5336 316.892 76.3776 317.649 76.245C318.265 76.128 318.514 76.0422 318.616 75.8628H318.631V76.4946ZM320.386 78H321.353V75.7458C321.353 75.0672 321.86 74.6148 322.609 74.6148C323.326 74.6148 323.771 75.0438 323.771 75.738V78H324.738V75.5898C324.738 74.4978 323.942 73.749 322.765 73.749C322.203 73.749 321.673 73.9518 321.337 74.295H321.322V73.866H320.386V78ZM325.441 76.8924C325.441 77.6334 326.049 78.117 326.977 78.117C327.609 78.117 328.163 77.8908 328.42 77.5242H328.436V78H329.317V75.27C329.317 74.334 328.592 73.749 327.445 73.749C326.4 73.749 325.566 74.3262 325.41 75.1842L326.33 75.3792C326.447 74.8722 326.876 74.5524 327.469 74.5524C327.976 74.5524 328.303 74.7474 328.303 75.0672C328.303 75.3168 328.062 75.4338 327.258 75.5508C325.948 75.7458 325.441 76.1358 325.441 76.8924ZM328.389 76.4946C328.389 76.9314 327.828 77.298 327.126 77.298C326.603 77.298 326.361 77.1576 326.361 76.8378C326.361 76.5336 326.65 76.3776 327.406 76.245C328.023 76.128 328.272 76.0422 328.374 75.8628H328.389V76.4946ZM330.143 78H331.11V72.306H330.143V78ZM332.47 79.755H333.547L336.433 73.866H335.349L334.015 76.7052H333.999L332.658 73.866H331.581L333.484 77.727L332.47 79.755ZM336.346 76.6272C336.432 77.0874 336.681 77.4462 337.095 77.7114C337.508 77.9844 338.015 78.117 338.623 78.117C339.817 78.117 340.62 77.6178 340.62 76.8612C340.62 76.1124 340.066 75.7458 338.662 75.5274C337.703 75.3714 337.461 75.2622 337.461 74.997C337.461 74.7162 337.812 74.5446 338.374 74.5446C338.99 74.5446 339.458 74.8332 339.614 75.2778L340.495 75.036C340.308 74.3028 339.396 73.749 338.374 73.749C337.274 73.749 336.533 74.2482 336.533 75.0048C336.533 75.7224 337.056 76.0656 338.553 76.2996C339.388 76.4166 339.684 76.557 339.684 76.8612C339.684 77.1498 339.286 77.3214 338.623 77.3214C337.867 77.3214 337.407 77.0172 337.251 76.4166L336.346 76.6272ZM341.242 78H342.209V73.866H341.242V78ZM341.203 73.164H342.232V72.1734H341.203V73.164ZM342.843 76.6272C342.929 77.0874 343.179 77.4462 343.592 77.7114C344.005 77.9844 344.512 78.117 345.121 78.117C346.314 78.117 347.118 77.6178 347.118 76.8612C347.118 76.1124 346.564 75.7458 345.16 75.5274C344.2 75.3714 343.959 75.2622 343.959 74.997C343.959 74.7162 344.31 74.5446 344.871 74.5446C345.487 74.5446 345.955 74.8332 346.111 75.2778L346.993 75.036C346.806 74.3028 345.893 73.749 344.871 73.749C343.771 73.749 343.03 74.2482 343.03 75.0048C343.03 75.7224 343.553 76.0656 345.051 76.2996C345.885 76.4166 346.182 76.557 346.182 76.8612C346.182 77.1498 345.784 77.3214 345.121 77.3214C344.364 77.3214 343.904 77.0172 343.748 76.4166L342.843 76.6272ZM350.194 77.3916L353.228 75.5664V74.958L350.194 73.1328L349.757 73.8426L352.175 75.2622L349.757 76.6896L350.194 77.3916ZM356.095 78H357.062V73.866H356.095V78ZM356.056 73.164H357.086V72.1734H356.056V73.164ZM357.931 78H358.898V75.7458C358.898 75.0672 359.405 74.6148 360.154 74.6148C360.871 74.6148 361.316 75.0438 361.316 75.738V78H362.283V75.5898C362.283 74.4978 361.488 73.749 360.31 73.749C359.748 73.749 359.218 73.9518 358.882 74.295H358.867V73.866H357.931V78ZM362.869 76.6272C362.955 77.0874 363.204 77.4462 363.618 77.7114C364.031 77.9844 364.538 78.117 365.146 78.117C366.34 78.117 367.143 77.6178 367.143 76.8612C367.143 76.1124 366.589 75.7458 365.185 75.5274C364.226 75.3714 363.984 75.2622 363.984 74.997C363.984 74.7162 364.335 74.5446 364.897 74.5446C365.513 74.5446 365.981 74.8332 366.137 75.2778L367.018 75.036C366.831 74.3028 365.919 73.749 364.897 73.749C363.797 73.749 363.056 74.2482 363.056 75.0048C363.056 75.7224 363.579 76.0656 365.076 76.2996C365.911 76.4166 366.207 76.557 366.207 76.8612C366.207 77.1498 365.809 77.3214 365.146 77.3214C364.39 77.3214 363.93 77.0172 363.774 76.4166L362.869 76.6272ZM367.765 78H368.732V73.866H367.765V78ZM367.726 73.164H368.755V72.1734H367.726V73.164ZM369.709 78.8112C370.154 79.5054 370.903 79.872 371.87 79.872C373.134 79.872 374.023 79.0686 374.023 77.9532V73.866H373.079V74.3106H373.063C372.751 73.9674 372.221 73.7724 371.62 73.7724C370.38 73.7724 369.444 74.7162 369.444 75.933C369.444 77.1888 370.388 78.117 371.667 78.117C372.268 78.117 372.783 77.9142 373.071 77.5632H373.087V77.9532C373.087 78.2652 372.97 78.5226 372.744 78.7332C372.51 78.936 372.221 79.0374 371.87 79.0374C371.215 79.0374 370.84 78.8268 370.443 78.2652L369.709 78.8112ZM373.056 76.1982C373.056 76.7832 372.486 77.2668 371.761 77.2668C370.926 77.2668 370.411 76.7676 370.411 75.933C370.411 75.153 370.957 74.6304 371.776 74.6304C372.478 74.6304 373.056 75.1218 373.056 75.6834V76.1982ZM374.841 78H375.808V75.7458C375.808 75.0828 376.307 74.6148 377.048 74.6148C377.789 74.6148 378.226 75.0438 378.226 75.738V78H379.193V75.5898C379.193 74.4978 378.398 73.749 377.22 73.749C376.658 73.749 376.167 73.944 375.824 74.295H375.808V72.306H374.841V78ZM382.838 74.6928V73.866H381.505V72.8676H380.537V73.866H379.586V74.6928H380.537V76.8066C380.537 77.6412 380.92 78 381.863 78H382.659V77.1108H381.941C381.598 77.1108 381.505 77.0328 381.505 76.7598V74.6928H382.838ZM383.07 76.6272C383.155 77.0874 383.405 77.4462 383.818 77.7114C384.232 77.9844 384.739 78.117 385.347 78.117C386.541 78.117 387.344 77.6178 387.344 76.8612C387.344 76.1124 386.79 75.7458 385.386 75.5274C384.427 75.3714 384.185 75.2622 384.185 74.997C384.185 74.7162 384.536 74.5446 385.098 74.5446C385.714 74.5446 386.182 74.8332 386.338 75.2778L387.219 75.036C387.032 74.3028 386.119 73.749 385.098 73.749C383.998 73.749 383.257 74.2482 383.257 75.0048C383.257 75.7224 383.779 76.0656 385.277 76.2996C386.112 76.4166 386.408 76.557 386.408 76.8612C386.408 77.1498 386.01 77.3214 385.347 77.3214C384.591 77.3214 384.13 77.0172 383.974 76.4166L383.07 76.6272Z" fill="white"/>
</svg>
