<svg width="229" height="44" viewBox="0 0 229 44" fill="none" xmlns="http://www.w3.org/2000/svg">
<path d="M29.5619 13L18 36.3634L6.4381 13L29.5619 13Z" stroke="white" stroke-width="5"/>
<path d="M44.0051 35.204H48.4099V18.1871H48.4782L57.4243 35.204H59.1999L68.1461 18.1871H68.2144V35.204H72.6192V11.5224H67.2925L58.3463 28.9453H58.278L49.3318 11.5224H44.0051V35.204Z" fill="white"/>
<path d="M79.2189 42.8159H83.9311L96.565 17.2736H91.8187L85.9798 29.5881H85.9115L80.0384 17.2736H75.3263L83.6579 34.0199L79.2189 42.8159Z" fill="white"/>
<path d="M98.5756 35.204H102.81V26.1711C102.81 22.6866 104.483 20.8597 107.18 20.8597C108 20.8597 108.853 20.995 109.741 21.2318L110.663 17.409C109.639 17.1045 108.683 16.9353 107.761 16.9353C105.678 16.9353 103.936 17.6796 102.673 18.999H102.605V17.2736H98.5756V35.204Z" fill="white"/>
<path d="M111.202 30.4C111.202 33.6139 113.865 35.7114 117.928 35.7114C120.694 35.7114 123.118 34.7303 124.245 33.1403H124.313V35.204H128.172V23.3632C128.172 19.3035 124.996 16.7662 119.977 16.7662C115.401 16.7662 111.748 19.2697 111.065 22.991L115.094 23.8368C115.606 21.6378 117.484 20.2507 120.079 20.2507C122.299 20.2507 123.733 21.0965 123.733 22.4836C123.733 23.5662 122.674 24.0736 119.157 24.5811C113.421 25.4269 111.202 27.1184 111.202 30.4ZM124.109 28.6746C124.109 30.5692 121.65 32.1592 118.577 32.1592C116.289 32.1592 115.231 31.5502 115.231 30.1632C115.231 28.8438 116.494 28.1672 119.806 27.592C122.504 27.0846 123.596 26.7124 124.04 25.9343H124.109V28.6746Z" fill="white"/>
<path d="M148.565 26.3065C148.565 31.99 152.423 35.7114 158.535 35.7114C162.257 35.7114 165.159 34.3582 167.242 31.6856L164.408 29.1821C162.735 31.2458 160.925 32.2269 158.501 32.2269C155.189 32.2269 152.901 30.4 152.765 27.592H167.959V26.3403C167.959 20.8935 164.101 16.7662 158.296 16.7662C152.662 16.7662 148.565 20.7244 148.565 26.3065ZM152.833 24.5473C153.106 22.0099 155.325 20.2507 158.364 20.2507C161.335 20.2507 163.555 22.0099 163.794 24.5473H152.833Z" fill="#FDB933"/>
<path d="M169.876 30.4C169.876 33.6139 172.54 35.7114 176.603 35.7114C179.369 35.7114 181.793 34.7303 182.92 33.1403H182.988V35.204H186.847V23.3632C186.847 19.3035 183.671 16.7662 178.652 16.7662C174.076 16.7662 170.423 19.2697 169.74 22.991L173.769 23.8368C174.281 21.6378 176.159 20.2507 178.754 20.2507C180.974 20.2507 182.408 21.0965 182.408 22.4836C182.408 23.5662 181.349 24.0736 177.832 24.5811C172.096 25.4269 169.876 27.1184 169.876 30.4ZM182.783 28.6746C182.783 30.5692 180.325 32.1592 177.252 32.1592C174.964 32.1592 173.906 31.5502 173.906 30.1632C173.906 28.8438 175.169 28.1672 178.481 27.592C181.179 27.0846 182.271 26.7124 182.715 25.9343H182.783V28.6746Z" fill="#FDB933"/>
<path d="M189.438 29.2498C189.814 31.2458 190.906 32.802 192.716 33.9522C194.526 35.1363 196.745 35.7114 199.409 35.7114C204.633 35.7114 208.15 33.5463 208.15 30.2647C208.15 27.0169 205.726 25.4269 199.579 24.4796C195.38 23.803 194.321 23.3294 194.321 22.1791C194.321 20.9612 195.858 20.2169 198.316 20.2169C201.014 20.2169 203.062 21.4687 203.745 23.397L207.604 22.3483C206.784 19.1682 202.789 16.7662 198.316 16.7662C193.501 16.7662 190.258 18.9313 190.258 22.2129C190.258 25.3254 192.545 26.8139 199.101 27.8289C202.755 28.3363 204.053 28.9453 204.053 30.2647C204.053 31.5164 202.311 32.2607 199.409 32.2607C196.097 32.2607 194.082 30.9413 193.399 28.3363L189.438 29.2498Z" fill="#FDB933"/>
<path d="M211.654 42.8159H216.366L229 17.2736H224.254L218.415 29.5881H218.347L212.473 17.2736H207.761L216.093 34.0199L211.654 42.8159Z" fill="#FDB933"/>
</svg>
