<svg width="32" height="32" viewBox="0 0 32 32" fill="none" xmlns="http://www.w3.org/2000/svg">
<path d="M22.4835 26.1C22.4888 26.606 22.2974 26.7326 21.7239 26.7758H6.68365C6.25079 26.7025 6.0924 26.5648 6 26.1V6.80213C6.14297 6.40645 6.2907 6.31351 6.68365 6.3516H10.2538M10.2538 6.3516H12.6846C12.9205 5.3938 13.2922 5 14.2038 5C15.1153 5 15.4057 5.45355 15.723 6.3516H18.2297M10.2538 6.3516V9.0548C10.2719 9.31219 10.3597 9.34687 10.5577 9.35516H17.7739C18.1058 9.35929 18.2212 9.30443 18.2297 9.0548V6.3516M18.2297 6.3516H21.7239C22.1307 6.35667 22.3316 6.50178 22.4835 6.80213L22.5195 10.7174" stroke="white"/>
<path d="M22.5195 26.7174V18.7174" stroke="white"/>
<path d="M8.51953 12.2174H18.0195" stroke="white"/>
<path d="M8.51953 15.2174H17.0195" stroke="white"/>
<path d="M8.51953 18.2174H16.0195" stroke="white"/>
<path d="M8.51953 21.2174H16.0195" stroke="white"/>
<path d="M8.51953 24.2174H18.5195" stroke="white"/>
<path d="M20.8597 14.0164L23.0865 11.5421C23.5223 11.2528 23.7145 11.3286 24.0144 11.6452L24.2533 11.8953M18.3546 18.4494L17.5195 20.7174L19.6536 19.7896M18.3546 18.4494L19.6536 19.7896M18.3546 18.4494L24.2533 11.8953M19.6536 19.7896L26.2412 12.47L24.9422 11.1298L24.2533 11.8953M25.2206 11.417L25.87 10.7174L26.5795 11.417L25.9073 12.1255" stroke="#FDB933"/>
</svg>
