<svg width="32" height="32" viewBox="0 0 32 32" fill="none" xmlns="http://www.w3.org/2000/svg">
<path d="M5.7507 18.8546C5.7507 19.3656 5.45086 17.2028 5.6357 14.9483C5.82054 12.6939 7.40392 10.2252 8.3466 9.28466C9.28928 8.34415 10.4963 7.44398 11.759 6.87759C13.0216 6.3112 13.7684 6.12244 15.592 6.12244C17.4156 6.12244 18.444 6.49999 19.7056 7.11358C20.9671 7.72717 22.6972 9.28466 22.6972 9.28466C23.6858 10.4234 24.1274 11.0874 24.6605 12.3525C25.0398 13.3577 25.192 13.9692 25.3617 15.1371C25.4246 16.4087 25.4254 17.7614 25.3617 19.0331M7.22539 18.2049C5.60078 18.7848 4 19.6208 4 21.6031C4 23.5854 5.38053 24.7166 7.27213 25.3789M23.773 25.1901C24.886 24.9869 26.9499 23.7464 26.9984 22.0279C27.0469 20.3094 25.9844 19.0141 23.773 18.2993" stroke="white"/>
<rect x="7.34766" y="17.301" width="2.69643" height="8.85714" rx="1.34821" stroke="#FDB933"/>
<rect x="20.9004" y="17.301" width="2.69643" height="8.85714" rx="1.34821" stroke="#FDB933"/>
</svg>
