<svg width="32" height="32" viewBox="0 0 32 32" fill="none" xmlns="http://www.w3.org/2000/svg">
<path d="M15.6904 15.4236C15.4715 15.4236 15.2939 15.6008 15.2939 15.8192V17.2665C15.2939 17.4849 15.4715 17.662 15.6904 17.662C15.9094 17.662 16.0868 17.4849 16.0868 17.2665V15.8192C16.0869 15.6008 15.9095 15.4236 15.6904 15.4236Z" fill="white"/>
<path d="M28.3655 15.8581L24.2816 13.7581C24.2706 13.7507 24.2596 13.7433 24.2478 13.737L20.8154 11.9123C20.6221 11.8096 20.382 11.8826 20.2791 12.0754C20.1761 12.2682 20.2493 12.5077 20.4425 12.6105L23.2371 14.0961L15.7091 18.3847L8.1919 14.0982L10.9904 12.6104C11.1836 12.5077 11.2569 12.2682 11.1539 12.0754C11.051 11.8825 10.8107 11.8095 10.6175 11.9122L7.24256 13.7064C7.14693 13.7341 7.06137 13.7969 7.00811 13.8899C6.89955 14.0797 6.96568 14.3213 7.15583 14.4296L14.912 18.8482L11.6033 20.6132L4.04755 16.2305L5.90795 15.2738C7.40328 14.5705 7.86826 14.0842 7.76795 13.8899C7.66763 13.6958 7.43745 13.6068 7.24256 13.7064L3.04103 15.858C2.91233 15.9242 2.83004 16.0551 2.8263 16.1996C2.82267 16.3441 2.89822 16.4791 3.02341 16.5517L11.3959 21.4081C11.4574 21.4438 11.5263 21.4617 11.5952 21.4617C11.6594 21.4617 11.7236 21.446 11.782 21.415L15.2937 19.5418V28.4234L7.76795 24.132V19.3037C7.76795 19.0853 7.42862 18.9799 7.20967 18.9799C6.99073 18.9799 6.94868 18.6101 6.94868 18.8285L6.97504 24.3616C6.97504 24.5036 7.05125 24.6347 7.17479 24.7051L15.3853 29.3869C15.4148 29.4224 15.45 29.4534 15.4912 29.4773C15.5527 29.5129 15.6215 29.5307 15.6902 29.5307C15.699 29.5307 15.7077 29.5296 15.7165 29.5291C15.7252 29.5296 15.734 29.5307 15.7427 29.5307C15.8116 29.5307 15.8803 29.5129 15.9417 29.4773C15.9829 29.4534 16.0182 29.4224 16.0476 29.3869L24.2581 24.7051C24.3816 24.6347 24.4579 24.5036 24.4579 24.3616V18.8285C24.0602 17.0621 24.2791 19.0592 24.0602 19.0592C23.8412 19.0592 23.665 19.07 23.665 19.2885V24.1319L16.1393 28.4234V19.0592L24.0679 14.5382L27.359 16.2305L19.8033 20.6132L17.904 19.5999C15.7091 18.3847 15.8198 18.6556 15.7165 18.8482C15.6132 19.0409 15.9462 19.4968 16.1393 19.5999L19.6244 21.415C19.6829 21.446 19.7472 21.4617 19.8114 21.4617C19.8803 21.4617 19.9491 21.4438 20.0106 21.4081L28.3832 16.5517C28.5083 16.4791 28.5839 16.3441 28.5802 16.1996C28.5766 16.0552 28.4943 15.9242 28.3655 15.8581Z" fill="white"/>
<path d="M15.8825 9.47949L17.2645 9.26475L15.3083 13.7877L12.0944 10.0681L13.4816 9.85253L13.9871 9.77398L13.8987 9.27013C13.8487 8.98536 13.809 8.68326 13.7687 8.37655L13.7687 8.37651L13.7682 8.37238L13.7681 8.37222L13.7675 8.36765C13.7081 7.91432 13.644 7.42505 13.5401 6.9677C13.4362 6.51021 13.2851 6.04803 13.0322 5.65871L13.032 5.65836C12.6202 5.0255 12.0499 4.51778 11.3924 4.18839C11.8084 4.14988 12.2338 4.18932 12.6325 4.30415L12.6326 4.30418C13.0823 4.43361 13.5142 4.66351 13.8783 4.96793C14.2439 5.27407 14.5481 5.66221 14.7564 6.0875C15.0518 6.69116 15.1415 7.40665 15.2068 8.17222L15.2069 8.17262C15.2322 8.46664 15.2714 8.76608 15.3126 9.05691L15.3834 9.55704L15.8825 9.47949ZM11.9886 10.1524L11.9885 10.1529C11.9886 10.1525 11.9887 10.1519 11.9888 10.1512L11.9886 10.1524Z" stroke="#FDB933"/>
</svg>
